<?xml version="1.0" standalone="no"?>
<!DOCTYPE svg PUBLIC "-//W3C//DTD SVG 20010904//EN"
 "http://www.w3.org/TR/2001/REC-SVG-20010904/DTD/svg10.dtd">
<svg version="1.0" xmlns="http://www.w3.org/2000/svg"
 width="500.000000pt" height="500.000000pt" viewBox="0 0 500.000000 500.000000"
 preserveAspectRatio="xMidYMid meet">
<metadata>
Created by potrace 1.14, written by Peter Selinger 2001-2017
</metadata>
<g transform="translate(0.000000,500.000000) scale(0.100000,-0.100000)"
fill="#000000" stroke="none">
<path d="M3630 4709 c-131 -22 -292 -135 -354 -249 -68 -125 -69 -131 -74
-521 -5 -420 2 -495 52 -605 42 -89 142 -196 221 -237 125 -63 271 -77 395
-38 36 12 66 21 68 21 1 0 2 -7 2 -15 0 -27 38 -35 158 -35 89 0 122 4 131 14
8 9 10 131 9 432 l-3 419 -139 3 c-105 2 -141 -1 -148 -10 -4 -7 -8 -179 -8
-381 l0 -368 -46 -20 c-70 -31 -165 -43 -226 -29 -65 16 -141 86 -157 145 -7
27 -11 239 -11 650 0 570 2 613 19 650 10 22 31 53 47 69 62 62 83 66 366 66
l258 0 2 -212 c3 -205 4 -213 23 -213 19 0 20 7 20 235 l0 235 -275 1 c-151 1
-300 -2 -330 -7z m-149 -141 l-26 -53 0 -640 0 -640 27 -47 c15 -27 23 -48 19
-48 -15 0 -87 57 -131 106 -51 54 -85 118 -106 197 -21 80 -20 786 2 870 29
112 97 212 186 272 29 19 53 35 54 35 0 0 -11 -24 -25 -52z m709 -1103 l0
-385 -100 0 -100 0 0 385 0 385 100 0 100 0 0 -385z"/>
<path d="M1332 3648 c-17 -17 -17 -2689 0 -2706 17 -17 439 -17 456 0 9 9 12
170 12 665 l0 653 360 0 360 0 0 -653 c0 -495 3 -656 12 -665 13 -13 421 -18
452 -6 14 6 16 134 16 1349 0 739 -3 1350 -6 1359 -5 14 -35 16 -230 16 -211
0 -224 -1 -234 -19 -6 -13 -10 -239 -10 -665 l0 -646 -360 0 -360 0 0 653 c0
495 -3 656 -12 665 -17 17 -439 17 -456 0z m388 -1353 l0 -1295 -162 2 -163 3
-3 1293 -2 1292 165 0 165 0 0 -1295z m1208 3 l-3 -1293 -162 -3 -163 -2 0
1295 0 1295 165 0 165 0 -2 -1292z"/>
</g>
</svg>
